HIERARCHY
ROOT hip
{
  OFFSET 0 0 0
  CHANNELS 6 Xposition Yposition Zposition Zrotation Yrotation Xrotation
  JOINT abdomen
  {
    OFFSET 0 20.6881 -0.73152
    CHANNELS 3 Zrotation Xrotation Yrotation
    JOINT chest
    {
      OFFSET 0 11.7043 -0.48768
      CHANNELS 3 Zrotation Xrotation Yrotation
      JOINT neck
      {
        OFFSET 0 22.1894 -2.19456
        CHANNELS 3 Zrotation Xrotation Yrotation
        JOINT head
        {
          OFFSET -0.24384 7.07133 1.2192
          CHANNELS 3 Zrotation Xrotation Yrotation
          JOINT leftEye
          {
            OFFSET 4.14528 8.04674 8.04672
            CHANNELS 3 Zrotation Xrotation Yrotation
            End Site
            {
              OFFSET 1 0 0
            }
          }
          JOINT rightEye
          {
            OFFSET -3.6576 8.04674 8.04672
            CHANNELS 3 Zrotation Xrotation Yrotation
            End Site
            {
              OFFSET 1 0 0
            }
          }
        }
      }
      JOINT rCollar
      {
        OFFSET -2.68224 19.2634 -4.8768
        CHANNELS 3 Zrotation Xrotation Yrotation
        JOINT rShldr
        {
          OFFSET -8.77824 -1.95073 1.46304
          CHANNELS 3 Zrotation Xrotation Yrotation
          JOINT rForeArm
          {
            OFFSET -28.1742 -1.7115 0.48768
            CHANNELS 3 Zrotation Xrotation Yrotation
            JOINT rHand
            {
              OFFSET -22.5879 0.773209 7.07136
              CHANNELS 3 Zrotation Xrotation Yrotation
              JOINT rThumb1
              {
                OFFSET -1.2192 -0.487915 3.41376
                CHANNELS 3 Zrotation Xrotation Yrotation
                JOINT rThumb2
                {
                  OFFSET -3.37035 -0.52449 3.41376
                  CHANNELS 3 Zrotation Xrotation Yrotation
                  End Site
                  {
                    OFFSET -1.78271 -1.18214 1.43049
                  }
                }
              }
              JOINT rIndex1
              {
                OFFSET -7.75947 0.938293 5.60832
                CHANNELS 3 Zrotation Xrotation Yrotation
                JOINT rIndex2
                {
                  OFFSET -2.54057 -0.884171 1.56538
                  CHANNELS 3 Zrotation Xrotation Yrotation
                  End Site
                  {
                    OFFSET -1.62519 -0.234802 1.16502
                  }
                }
              }
              JOINT rMid1
              {
                OFFSET -8.24714 1.18213 3.41376
                CHANNELS 3 Zrotation Xrotation Yrotation
                JOINT rMid2
                {
                  OFFSET -3.10165 -0.590103 1.0647
                  CHANNELS 3 Zrotation Xrotation Yrotation
                  End Site
                  {
                    OFFSET -2.48547 -0.328903 0.83742
                  }
                }
              }
              JOINT rRing1
              {
                OFFSET -8.82822 0.546677 1.51678
                CHANNELS 3 Zrotation Xrotation Yrotation
                JOINT rRing2
                {
                  OFFSET -2.60934 -0.819778 -0.0198488
                  CHANNELS 3 Zrotation Xrotation Yrotation
                  End Site
                  {
                    OFFSET -2.33842 -0.294052 0.168128
                  }
                }
              }
              JOINT rPinky1
              {
                OFFSET -8.27202 -0.0477905 -0.4584
                CHANNELS 3 Zrotation Xrotation Yrotation
                JOINT rPinky2
                {
                  OFFSET -1.82734 -0.647385 -0.700984
                  CHANNELS 3 Zrotation Xrotation Yrotation
                  End Site
                  {
                    OFFSET -1.69225 -0.51767 -0.607171
                  }
                }
              }
            }
          }
        }
      }
      JOINT lCollar
      {
        OFFSET 2.68224 19.2634 -4.8768
        CHANNELS 3 Zrotation Xrotation Yrotation
        JOINT lShldr
        {
          OFFSET 8.77824 -1.95073 1.46304
          CHANNELS 3 Zrotation Xrotation Yrotation
          JOINT lForeArm
          {
            OFFSET 28.1742 -1.7115 0.48768
            CHANNELS 3 Zrotation Xrotation Yrotation
            JOINT lHand
            {
              OFFSET 22.5879 0.773209 7.07136
              CHANNELS 3 Zrotation Xrotation Yrotation
              JOINT lThumb1
              {
                OFFSET 1.2192 -0.487915 3.41376
                CHANNELS 3 Zrotation Xrotation Yrotation
                JOINT lThumb2
                {
                  OFFSET 3.37035 -0.52449 3.41376
                  CHANNELS 3 Zrotation Xrotation Yrotation
                  End Site
                  {
                    OFFSET 1.78271 -1.18214 1.43049
                  }
                }
              }
              JOINT lIndex1
              {
                OFFSET 7.75947 0.938293 5.60832
                CHANNELS 3 Zrotation Xrotation Yrotation
                JOINT lIndex2
                {
                  OFFSET 2.54057 -0.884171 1.56538
                  CHANNELS 3 Zrotation Xrotation Yrotation
                  End Site
                  {
                    OFFSET 1.62519 -0.234802 1.16502
                  }
                }
              }
              JOINT lMid1
              {
                OFFSET 8.24714 1.18213 3.41376
                CHANNELS 3 Zrotation Xrotation Yrotation
                JOINT lMid2
                {
                  OFFSET 3.10165 -0.590103 1.0647
                  CHANNELS 3 Zrotation Xrotation Yrotation
                  End Site
                  {
                    OFFSET 2.48547 -0.328903 0.83742
                  }
                }
              }
              JOINT lRing1
              {
                OFFSET 8.82822 0.546677 1.51678
                CHANNELS 3 Zrotation Xrotation Yrotation
                JOINT lRing2
                {
                  OFFSET 2.60934 -0.819778 -0.0198488
                  CHANNELS 3 Zrotation Xrotation Yrotation
                  End Site
                  {
                    OFFSET 2.33842 -0.294052 0.168128
                  }
                }
              }
              JOINT lPinky1
              {
                OFFSET 8.27202 -0.0477905 -0.4584
                CHANNELS 3 Zrotation Xrotation Yrotation
                JOINT lPinky2
                {
                  OFFSET 1.82734 -0.647385 -0.700984
                  CHANNELS 3 Zrotation Xrotation Yrotation
                  End Site
                  {
                    OFFSET 1.69225 -0.51767 -0.607171
                  }
                }
              }
            }
          }
        }
      }
    }
  }
  JOINT rButtock
  {
    OFFSET -8.77824 4.35084 1.2192
    CHANNELS 3 Zrotation Xrotation Yrotation
    JOINT rThigh
    {
      OFFSET 0 -1.70687 -2.19456
      CHANNELS 3 Zrotation Xrotation Yrotation
      JOINT rShin
      {
        OFFSET 0 -36.8199 0.73152
        CHANNELS 3 Zrotation Xrotation Yrotation
        JOINT rFoot
        {
          OFFSET 0.73152 -45.1104 -5.12064
          CHANNELS 3 Zrotation Xrotation Yrotation
          End Site
          {
            OFFSET -1.1221 -3.69964 12.103
          }
        }
      }
    }
  }
  JOINT lButtock
  {
    OFFSET 8.77824 4.35084 1.2192
    CHANNELS 3 Zrotation Xrotation Yrotation
    JOINT lThigh
    {
      OFFSET 0 -1.70687 -2.19456
      CHANNELS 3 Zrotation Xrotation Yrotation
      JOINT lShin
      {
        OFFSET 0 -36.8199 0.73152
        CHANNELS 3 Zrotation Xrotation Yrotation
        JOINT lFoot
        {
          OFFSET -0.73152 -45.1104 -5.12064
          CHANNELS 3 Zrotation Xrotation Yrotation
          End Site
          {
            OFFSET 1.1221 -3.69964 12.103
          }
        }
      }
    }
  }
}
MOTION
Frames:	4
Frame Time:	0.03333
5.681420042179525 50.99250030517578 68.52339974045753 -17.01860010623932 -28.285101056098938 13.797900080680847 11.929899752140045 9.23314981162548 4.718550145626068 1.4787100441753864 -8.250440061092377 1.3530600350350142 0.21723099751397967 12.249699532985687 7.017960324883461 4.463099911808968 -26.101501286029816 14.995400458574295 0.0 0.0 0.0 0.0 0.0 0.0 0.0 0.0 -6.394884621840902e-13 106.59700512886047 46.99999988079071 -55.15139937400818 -27.2759011387825 -43.22899907827377 89.93170022964478 -7.900559976696968 -59.469900727272034 -13.786599934101105 -1.007194327939942e-10 -8.492406777804717e-10 -5.697842198060243e-10 -1.4356515976032824e-10 -1.5373302630905528e-09 -9.963230240828125e-10 -1.007194327939942e-10 -8.492406777804717e-10 -5.697842198060243e-10 7.7309102565050125 5.474880114197731 0.41731400415301323 -1.007194327939942e-10 -8.492406777804717e-10 -5.697842198060243e-10 2.905540131032467 0.9651830233633518 0.102901995414868 -1.007194327939942e-10 -8.492406777804717e-10 -5.697842198060243e-10 10.27859978377819 0.7318009994924068 0.025912300043273717 -1.007194327939942e-10 -8.492406777804717e-10 -5.697842198060243e-10 2.221670038998127 -0.733487019315362 -0.2089200052432716 0.0 0.0 -6.394884621840902e-13 -59.14769768714905 -19.580899626016617 -79.60970163345337 8.096369951963425 -3.0584800243377686 -14.275799989700317 9.219200313091278 61.95689857006073 -15.29809981584549 -4.261071495648139e-09 6.722302714479156e-09 1.4356515976032824e-09 -7.232454635186514e-09 1.0265068794979015e-08 2.682014610400074e-09 -4.261071495648139e-09 6.722302714479156e-09 1.4356515976032824e-09 -7.7309102565050125 5.474880114197731 -0.41731400415301323 -4.261071495648139e-09 6.722302714479156e-09 1.4356515976032824e-09 -2.905540131032467 0.9651830233633518 -0.102901995414868 -4.261071495648139e-09 6.722302714479156e-09 1.4356515976032824e-09 -10.27859978377819 0.7318009994924068 -0.025912300043273717 -4.261071495648139e-09 6.722302714479156e-09 1.4356515976032824e-09 -2.221670038998127 -0.733487019315362 0.2089200052432716 0.0 0.0 0.0 -13.041899353265762 10.580399930477142 -5.003709867596626 0.058745998539961874 32.5123992562294 2.449560072273016 -8.02244022488594 -17.334899604320526 -30.135599970817566 0.0 0.0 0.0 86.23499929904938 -54.55680191516876 75.8489978313446 3.888319954276085 76.51179850101471 -3.54288998991251 -0.5725769838318229 2.732849959284067 -7.013029754161835
5.651250042952597 50.797000885009766 68.73819974064827 -17.14450031518936 -28.123100996017456 13.866800665855408 12.249600291252136 9.128009900450706 4.60971012711525 1.4419599249958992 -8.204000294208527 1.32058996707201 0.24325200822204351 12.246299833059311 7.0206499099731445 4.324610084295273 -25.942400693893433 14.954999685287476 0.0 0.0 0.0 0.0 0.0 0.0 -1.5987211554602254e-13 0.0 0.0 106.49200201034546 46.86639904975891 -55.141502022743225 -27.268101274967194 -43.25299948453903 89.97780203819275 -7.9079098999500275 -59.48520004749298 -13.7950998544693 -5.752198717345891e-10 8.72262262419099e-10 -5.4996007747831754e-11 -9.844924875324068e-10 1.4452439245360438e-09 -1.2150280781497713e-10 -5.752198717345891e-10 8.72262262419099e-10 -5.4996007747831754e-11 7.7309102565050125 5.474880114197731 0.41731400415301323 -5.752198717345891e-10 8.72262262419099e-10 -5.4996007747831754e-11 2.905540131032467 0.9651830233633518 0.102901995414868 -5.752198717345891e-10 8.72262262419099e-10 -5.4996007747831754e-11 10.27859978377819 0.7318009994924068 0.025912300043273717 -5.752198717345891e-10 8.72262262419099e-10 -5.4996007747831754e-11 2.221670038998127 -0.733487019315362 -0.2089200052432716 -1.5987211554602254e-13 0.0 0.0 -59.13409888744354 -19.58209991455078 -79.45169806480408 8.086569830775261 -3.055479973554611 -14.25849974155426 9.286600202322006 62.07229793071747 -15.374400615692139 -1.1331735549902078e-09 9.259792932425626e-09 -1.183693143502751e-09 -2.0022383750983863e-09 1.5813270692888182e-08 -1.977937813535391e-09 -1.1331735549902078e-09 9.259792932425626e-09 -1.183693143502751e-09 -7.7309102565050125 5.474880114197731 -0.41731400415301323 -1.1331735549902078e-09 9.259792932425626e-09 -1.183693143502751e-09 -2.905540131032467 0.9651830233633518 -0.102901995414868 -1.1331735549902078e-09 9.259792932425626e-09 -1.183693143502751e-09 -10.27859978377819 0.7318009994924068 -0.025912300043273717 -1.1331735549902078e-09 9.259792932425626e-09 -1.183693143502751e-09 -2.221670038998127 -0.733487019315362 0.2089200052432716 0.0 0.0 0.0 -12.95600026845932 10.908900126814842 -5.0210899114608765 0.06373080017510802 32.32919901609421 2.4658199585974216 -8.04440014064312 -17.380699664354324 -30.192800760269165 0.0 0.0 0.0 86.99469745159149 -54.53720033168793 76.53200089931488 4.115419909358025 77.08990037441254 -3.752420134842396 -0.596764013171196 2.4344000592827797 -7.105940133333206
5.6224400429055095 50.61259841918945 68.9369997382164 -17.27919951081276 -27.920599579811096 13.939900249242783 12.629199922084808 9.036230072379112 4.467780031263828 1.3952100276947021 -8.154420331120491 1.2788599915802479 0.26293099857866764 12.207700163125992 7.049959748983383 4.165560118854046 -25.756199061870575 14.962500482797623 0.0 0.0 0.0 0.0 0.0 0.0 -3.197442310920451e-13 0.0 6.394884621840902e-13 106.38799667358398 46.677297949790955 -55.17509937286377 -27.257098853588104 -43.28610062599182 90.04219651222229 -7.88242019712925 -59.432398080825806 -13.765500336885452 -9.584333326984051e-10 3.340687726449687e-09 9.656275778979762e-10 -1.694804296903385e-09 5.778417744295439e-09 1.6332535324181663e-09 -9.584333326984051e-10 3.340687726449687e-09 9.656275778979762e-10 7.7309102565050125 5.474880114197731 0.41731400415301323 -9.584333326984051e-10 3.340687726449687e-09 9.656275778979762e-10 2.905540131032467 0.9651830233633518 0.102901995414868 -9.584333326984051e-10 3.340687726449687e-09 9.656275778979762e-10 10.27859978377819 0.7318009994924068 0.025912300043273717 -9.584333326984051e-10 3.340687726449687e-09 9.656275778979762e-10 2.221670038998127 -0.733487019315362 -0.2089200052432716 -3.197442310920451e-13 0.0 6.394884621840902e-13 -59.33140218257904 -19.586100429296494 -79.33879852294922 8.05443026125431 -3.0456600710749626 -14.201800525188446 9.392869994044304 62.25200057029724 -15.494599789381027 5.504396938249556e-09 2.9467628337442875e-09 -4.28393320817122e-09 9.221903241041218e-09 7.10599579178961e-09 -7.64060814617551e-09 5.504396938249556e-09 2.9467628337442875e-09 -4.28393320817122e-09 -7.7309102565050125 5.474880114197731 -0.41731400415301323 5.504396938249556e-09 2.9467628337442875e-09 -4.28393320817122e-09 -2.905540131032467 0.9651830233633518 -0.102901995414868 5.504396938249556e-09 2.9467628337442875e-09 -4.28393320817122e-09 -10.27859978377819 0.7318009994924068 -0.025912300043273717 5.504396938249556e-09 2.9467628337442875e-09 -4.28393320817122e-09 -2.221670038998127 -0.733487019315362 0.2089200052432716 0.0 0.0 0.0 -12.826099544763565 11.208600103855133 -5.034420154988766 0.06803500175010413 32.19089895486832 2.4818200059235096 -8.073889687657356 -17.488599568605423 -30.18190026283264 0.0 0.0 0.0 87.73150026798248 -54.595897793769836 77.15050220489502 4.348409995436668 77.63450145721436 -3.970320113003254 -0.6187399802729487 2.161530051380396 -7.1500202268362045
5.596310042776167 50.44369888305664 69.1244997382164 -17.38389953970909 -27.75799870491028 14.015900641679764 12.894600480794907 8.941259756684303 4.402330107986927 1.370300017297268 -8.114930167794228 1.2584000173956156 0.2808699896559119 12.189800441265106 7.063930034637451 4.067909941077232 -25.637900233268738 14.960499554872513 0.0 0.0 0.0 0.0 0.0 0.0 -1.5987211554602254e-13 0.0 6.394884621840902e-13 106.35600328445435 46.51130139827728 -55.2567994594574 -27.25260078907013 -43.29979866743088 90.06890058517456 -7.836510166525841 -59.336798787117004 -13.712199479341507 -1.1741008165699895e-09 3.834372819255805e-09 1.043005681822251e-09 -2.070983384783176e-09 6.619984560529701e-09 1.7566748056196957e-09 -1.1741008165699895e-09 3.834372819255805e-09 1.043005681822251e-09 7.7309102565050125 5.474880114197731 0.41731400415301323 -1.1741008165699895e-09 3.834372819255805e-09 1.043005681822251e-09 2.905540131032467 0.9651830233633518 0.102901995414868 -1.1741008165699895e-09 3.834372819255805e-09 1.043005681822251e-09 10.27859978377819 0.7318009994924068 0.025912300043273717 -1.1741008165699895e-09 3.834372819255805e-09 1.043005681822251e-09 2.221670038998127 -0.733487019315362 -0.2089200052432716 -1.5987211554602254e-13 0.0 6.394884621840902e-13 -59.44279968738556 -19.51299950480461 -79.21449959278107 8.04556019604206 -3.0417799204587936 -14.185799807310104 9.366129711270332 62.20710039138794 -15.464399456977844 6.178737521622679e-09 -1.9977619558630977e-09 -3.702638196045882e-09 1.0407834594161613e-08 -1.3224621397966985e-09 -6.6705041490422445e-09 6.178737521622679e-09 -1.9977619558630977e-09 -3.702638196045882e-09 -7.7309102565050125 5.474880114197731 -0.41731400415301323 6.178737521622679e-09 -1.9977619558630977e-09 -3.702638196045882e-09 -2.905540131032467 0.9651830233633518 -0.102901995414868 6.178737521622679e-09 -1.9977619558630977e-09 -3.702638196045882e-09 -10.27859978377819 0.7318009994924068 -0.025912300043273717 6.178737521622679e-09 -1.9977619558630977e-09 -3.702638196045882e-09 -2.221670038998127 -0.733487019315362 0.2089200052432716 0.0 0.0 0.0 -12.720200568437576 11.493799388408661 -4.955530017614365 0.07249160204082727 31.994799971580505 2.494400069117546 -8.117969781160355 -17.52250000834465 -30.29390126466751 0.0 0.0 0.0 88.38969826698303 -54.609898924827576 77.76050090789795 4.579979851841927 78.13119828701019 -4.187609888613224 -0.6387679930776358 1.9071600772440434 -7.1998898684978485
